<mxfile host="65bd71144e">
    <diagram id="5-WaMf3t1kB711Vb_BlX" name="Page-1">
        <mxGraphModel dx="1828" dy="3134" grid="1" gridSize="10" guides="1" tooltips="1" connect="1" arrows="1" fold="1" page="1" pageScale="1" pageWidth="1100" pageHeight="850" math="0" shadow="0">
            <root>
                <mxCell id="0"/>
                <mxCell id="1" parent="0"/>
                <mxCell id="6" value="Front End Tasks" style="swimlane;fontStyle=0;childLayout=stackLayout;horizontal=1;startSize=30;horizontalStack=0;resizeParent=1;resizeParentMax=0;resizeLast=0;collapsible=1;marginBottom=0;" parent="1" vertex="1">
                    <mxGeometry x="-340" y="-1160" width="240" height="120" as="geometry"/>
                </mxCell>
                <mxCell id="7" value="Item 1" style="text;strokeColor=none;fillColor=none;align=left;verticalAlign=middle;spacingLeft=4;spacingRight=4;overflow=hidden;points=[[0,0.5],[1,0.5]];portConstraint=eastwest;rotatable=0;" parent="6" vertex="1">
                    <mxGeometry y="30" width="240" height="30" as="geometry"/>
                </mxCell>
                <mxCell id="8" value="Item 2" style="text;strokeColor=none;fillColor=none;align=left;verticalAlign=middle;spacingLeft=4;spacingRight=4;overflow=hidden;points=[[0,0.5],[1,0.5]];portConstraint=eastwest;rotatable=0;" parent="6" vertex="1">
                    <mxGeometry y="60" width="240" height="30" as="geometry"/>
                </mxCell>
                <mxCell id="9" value="Item 3" style="text;strokeColor=none;fillColor=none;align=left;verticalAlign=middle;spacingLeft=4;spacingRight=4;overflow=hidden;points=[[0,0.5],[1,0.5]];portConstraint=eastwest;rotatable=0;" parent="6" vertex="1">
                    <mxGeometry y="90" width="240" height="30" as="geometry"/>
                </mxCell>
                <mxCell id="92" style="edgeStyle=none;html=1;fontSize=13;fontColor=#4D4D4D;" parent="1" source="42" target="68" edge="1">
                    <mxGeometry relative="1" as="geometry"/>
                </mxCell>
                <mxCell id="42" value="&lt;p style=&quot;line-height: 0.8 ; font-size: 13px&quot;&gt;&lt;/p&gt;&lt;div style=&quot;color: rgb(0 , 0 , 0) ; font-family: &amp;#34;helvetica&amp;#34; ; font-style: normal ; letter-spacing: normal ; text-indent: 0px ; text-transform: none ; word-spacing: 0px ; background-color: rgb(248 , 249 , 250)&quot;&gt;&lt;b&gt;&lt;font style=&quot;font-size: 16px&quot;&gt;AUTHENTICATION&lt;/font&gt;&lt;/b&gt;&lt;br style=&quot;font-size: 13px&quot;&gt;&lt;/div&gt;&lt;div style=&quot;color: rgb(0 , 0 , 0) ; font-family: &amp;#34;helvetica&amp;#34; ; font-style: normal ; font-weight: 400 ; letter-spacing: normal ; text-indent: 0px ; text-transform: none ; word-spacing: 0px ; background-color: rgb(248 , 249 , 250) ; font-size: 13px ; line-height: 1&quot;&gt;&lt;ol style=&quot;font-size: 13px&quot;&gt;&lt;li style=&quot;font-size: 13px&quot;&gt;&lt;div style=&quot;font-family: &amp;#34;helvetica&amp;#34; ; display: inline ; font-size: 13px&quot;&gt;Are an email and a password asked for in the resgistration?&lt;/div&gt;&lt;/li&gt;&lt;li style=&quot;font-size: 13px&quot;&gt;Does the project detect if the email or password are wrong?&lt;/li&gt;&lt;li style=&quot;font-size: 13px&quot;&gt;Does the project detect if the email or user name is already taken in the registration?&lt;/li&gt;&lt;li style=&quot;font-size: 13px&quot;&gt;Try to register as a new user in the forum,&amp;nbsp;Is it possible to register?&lt;/li&gt;&lt;li style=&quot;font-size: 13px&quot;&gt;Try to login with the user you created,&amp;nbsp;Can you login and have all the rights of a registered user?&lt;/li&gt;&lt;li style=&quot;font-size: 13px&quot;&gt;Try to login without any credentials,&amp;nbsp;Does it show a warning message?&lt;/li&gt;&lt;li style=&quot;font-size: 13px&quot;&gt;Are sessions present in the project?&lt;/li&gt;&lt;li style=&quot;font-size: 13px&quot;&gt;Try opening two different browsers and login into one of them. Refresh the other browser.&amp;nbsp;&lt;/li&gt;&lt;ul&gt;&lt;li&gt;Can you confirm that the browser non logged remains unregistered?&lt;/li&gt;&lt;/ul&gt;&lt;li style=&quot;font-size: 13px&quot;&gt;Try opening two different browsers and login into both of them. Refresh both browsers.&amp;nbsp;&lt;/li&gt;&lt;ul&gt;&lt;li&gt;Can you confirm that only one of those browsers has an active session?&lt;/li&gt;&lt;/ul&gt;&lt;li style=&quot;font-size: 13px&quot;&gt;Try opening two different browsers and login into one of them. Then create a new post or just add a comment.&lt;/li&gt;&lt;ul&gt;&lt;li&gt;Refresh both browsers.&amp;nbsp;Does it present the comment/post on both browsers?&lt;/li&gt;&lt;/ul&gt;&lt;/ol&gt;&lt;/div&gt;&lt;p style=&quot;font-size: 13px&quot;&gt;&lt;/p&gt;" style="strokeWidth=1;shadow=0;dashed=0;align=left;html=1;shape=mxgraph.mockup.forms.rrect;rSize=0;strokeColor=#999999;fillColor=#ffffff;recursiveResize=0;rounded=0;labelBackgroundColor=#ffffff;verticalAlign=top;textOpacity=90;fontSize=13;" parent="1" vertex="1">
                    <mxGeometry x="-690" y="-2490" width="680" height="320" as="geometry"/>
                </mxCell>
                <mxCell id="94" style="edgeStyle=none;html=1;fontSize=13;fontColor=#4D4D4D;" parent="1" source="68" target="83" edge="1">
                    <mxGeometry relative="1" as="geometry"/>
                </mxCell>
                <mxCell id="68" value="&lt;p style=&quot;line-height: 1 ; font-size: 12px&quot;&gt;&lt;span style=&quot;font-size: 16px ; color: rgb(0 , 0 , 0) ; background-color: rgb(248 , 249 , 250)&quot;&gt;&lt;b&gt;SQLite&lt;/b&gt;&lt;/span&gt;&lt;br&gt;&lt;/p&gt;&lt;p style=&quot;line-height: 1.3 ; font-size: 12px&quot;&gt;&lt;/p&gt;&lt;ol&gt;&lt;li&gt;&lt;span style=&quot;background-color: rgb(248 , 249 , 250)&quot;&gt;&lt;font color=&quot;#000000&quot; style=&quot;font-size: 13px&quot;&gt;Does the code contain at least one CREATE query?&lt;/font&gt;&lt;/span&gt;&lt;/li&gt;&lt;li&gt;&lt;span style=&quot;background-color: rgb(248 , 249 , 250)&quot;&gt;&lt;font color=&quot;#000000&quot; style=&quot;font-size: 13px&quot;&gt;Does the code contain at least one INSERT query?&lt;br style=&quot;padding: 0px ; margin: 0px&quot;&gt;&lt;/font&gt;&lt;/span&gt;&lt;/li&gt;&lt;li&gt;&lt;span style=&quot;background-color: rgb(248 , 249 , 250)&quot;&gt;&lt;font color=&quot;#000000&quot; style=&quot;font-size: 13px&quot;&gt;Does the code contain at least one SELECT query?&lt;br style=&quot;padding: 0px ; margin: 0px&quot;&gt;&lt;/font&gt;&lt;/span&gt;&lt;/li&gt;&lt;li&gt;&lt;span style=&quot;background-color: rgb(248 , 249 , 250)&quot;&gt;&lt;font color=&quot;#000000&quot; style=&quot;font-size: 13px&quot;&gt;Try registering in the forum,&amp;nbsp;&lt;/font&gt;&lt;/span&gt;&lt;/li&gt;&lt;ul&gt;&lt;li&gt;&lt;span style=&quot;background-color: rgb(248 , 249 , 250)&quot;&gt;open the database with sqlite3 &amp;lt;database_name.db&amp;gt;&lt;/span&gt;&lt;/li&gt;&lt;li&gt;&lt;span style=&quot;background-color: rgb(248 , 249 , 250)&quot;&gt;and perform a query to select all the users (Example: SELECT * FROM users;).&lt;/span&gt;&lt;/li&gt;&lt;li&gt;&lt;span style=&quot;background-color: rgb(248 , 249 , 250)&quot;&gt;Does it present the user you created?&lt;/span&gt;&lt;/li&gt;&lt;/ul&gt;&lt;li&gt;&lt;font color=&quot;#000000&quot; style=&quot;font-size: 13px&quot;&gt;Try creating a post in the forum,&amp;nbsp;&lt;/font&gt;&lt;/li&gt;&lt;ul&gt;&lt;li&gt;open the database with sqlite3 &amp;lt;database_name.db&amp;gt;&amp;nbsp;&lt;/li&gt;&lt;li&gt;and perform a query to select all the users (Example: SELECT * FROM post;).&lt;/li&gt;&lt;li&gt;Does it present the post you created?&lt;/li&gt;&lt;/ul&gt;&lt;li&gt;&lt;font color=&quot;#000000&quot; style=&quot;font-size: 13px&quot;&gt;Try creating a comment in the forum,&amp;nbsp;&lt;/font&gt;&lt;/li&gt;&lt;ul&gt;&lt;li&gt;open the database with sqlite3 &amp;lt;database_name.db&amp;gt;&amp;nbsp;&lt;/li&gt;&lt;li&gt;and perform a query to select all the users (Example: SELECT * FROM comment;).&amp;nbsp;&lt;/li&gt;&lt;li&gt;Does it present the comment you created?&lt;/li&gt;&lt;/ul&gt;&lt;/ol&gt;&lt;p&gt;&lt;/p&gt;&lt;p&gt;&lt;/p&gt;" style="strokeWidth=1;shadow=0;dashed=0;align=left;html=1;shape=mxgraph.mockup.forms.rrect;rSize=0;strokeColor=#999999;fillColor=#ffffff;recursiveResize=0;rounded=0;labelBackgroundColor=#ffffff;fontSize=13;fontColor=#4D4D4D;verticalAlign=top;" parent="1" vertex="1">
                    <mxGeometry x="-580" y="-2125" width="570" height="390" as="geometry"/>
                </mxCell>
                <mxCell id="77" value="&lt;span style=&quot;color: rgb(0 , 0 , 0) ; background-color: rgb(248 , 249 , 250)&quot;&gt;&lt;font style=&quot;font-size: 13px&quot;&gt;&lt;b&gt;Functional&lt;/b&gt;&lt;br&gt;&lt;ol&gt;&lt;li&gt;&lt;span style=&quot;color: rgb(0 , 0 , 0) ; background-color: rgb(248 , 249 , 250)&quot;&gt;Enter the forum as a non-registered user and try to create a post.&lt;/span&gt;&lt;/li&gt;&lt;ul&gt;&lt;li&gt;Are you forbidden from creating a post?&lt;/li&gt;&lt;/ul&gt;&lt;li&gt;&lt;span style=&quot;color: rgb(0 , 0 , 0) ; background-color: rgb(248 , 249 , 250)&quot;&gt;Enter the forum as a non-registered user and try to create a comment.&lt;/span&gt;&lt;/li&gt;&lt;ul&gt;&lt;li&gt;Are you forbidden from creating a comment?&lt;/li&gt;&lt;/ul&gt;&lt;li&gt;&lt;span style=&quot;color: rgb(0 , 0 , 0) ; background-color: rgb(248 , 249 , 250)&quot;&gt;Enter the forum as a non-registered user and try to like a comment.&lt;/span&gt;&lt;/li&gt;&lt;ul&gt;&lt;li&gt;Are you forbidden from liking a post?&lt;/li&gt;&lt;/ul&gt;&lt;li&gt;&lt;span style=&quot;color: rgb(0 , 0 , 0) ; background-color: rgb(248 , 249 , 250)&quot;&gt;Enter the forum as a non-registered user and try to dislike a comment.&lt;/span&gt;&lt;/li&gt;&lt;ul&gt;&lt;li&gt;Are you forbidden from disliking a comment?&lt;/li&gt;&lt;/ul&gt;&lt;li&gt;&lt;span style=&quot;color: rgb(0 , 0 , 0) ; background-color: rgb(248 , 249 , 250)&quot;&gt;Enter the forum as a registered user, go to a post and try to create a comment for it.&lt;/span&gt;&lt;/li&gt;&lt;ul&gt;&lt;li&gt;Were you able to create the comment?&lt;/li&gt;&lt;/ul&gt;&lt;li&gt;&lt;span style=&quot;color: rgb(0 , 0 , 0) ; background-color: rgb(248 , 249 , 250)&quot;&gt;Enter the forum as a registered user, go to a post and try to create an empty comment for it.&lt;/span&gt;&lt;/li&gt;&lt;ul&gt;&lt;li&gt;Were you forbidden from creating the empty comment?&lt;/li&gt;&lt;/ul&gt;&lt;li&gt;&lt;span style=&quot;color: rgb(0 , 0 , 0) ; background-color: rgb(248 , 249 , 250)&quot;&gt;Enter the forum as a registered user and try to create a post.&amp;nbsp;&lt;/span&gt;&lt;span style=&quot;color: rgb(0 , 0 , 0) ; background-color: rgb(248 , 249 , 250)&quot;&gt;Were you able to create a post?&lt;/span&gt;&lt;/li&gt;&lt;li&gt;&lt;span style=&quot;color: rgb(0 , 0 , 0) ; background-color: rgb(248 , 249 , 250)&quot;&gt;Enter the forum as a registered user and try to create an empty post.&lt;/span&gt;&lt;/li&gt;&lt;ul&gt;&lt;li&gt;Were you forbidden from creating the empty post?&lt;/li&gt;&lt;/ul&gt;&lt;li&gt;&lt;span style=&quot;color: rgb(0 , 0 , 0) ; background-color: rgb(248 , 249 , 250)&quot;&gt;Try creating a post as a registered user and try to choose several categories for that post.&lt;/span&gt;&lt;/li&gt;&lt;ul&gt;&lt;li&gt;Were you able to choose several categories for that post?&lt;/li&gt;&lt;/ul&gt;&lt;li&gt;&lt;span style=&quot;color: rgb(0 , 0 , 0) ; background-color: rgb(248 , 249 , 250)&quot;&gt;Try creating a post as a registered user and try to choose a category for that post.&lt;/span&gt;&lt;/li&gt;&lt;ul&gt;&lt;li&gt;Were you able to choose a category for that post?&lt;/li&gt;&lt;/ul&gt;&lt;li&gt;&lt;span style=&quot;color: rgb(0 , 0 , 0) ; background-color: rgb(248 , 249 , 250)&quot;&gt;Enter the forum as a registered user and try to like or dislike a post.&amp;nbsp;&lt;/span&gt;&lt;span style=&quot;color: rgb(0 , 0 , 0) ; background-color: rgb(248 , 249 , 250)&quot;&gt;Can you like or dislike the post?&lt;/span&gt;&lt;/li&gt;&lt;li&gt;&lt;span style=&quot;color: rgb(0 , 0 , 0) ; background-color: rgb(248 , 249 , 250)&quot;&gt;Enter the forum as a registered user and try to like or dislike a comment.&amp;nbsp;&lt;/span&gt;&lt;span style=&quot;color: rgb(0 , 0 , 0) ; background-color: rgb(248 , 249 , 250)&quot;&gt;Can you like or dislike the comment?&lt;/span&gt;&lt;/li&gt;&lt;li&gt;&lt;span style=&quot;color: rgb(0 , 0 , 0) ; background-color: rgb(248 , 249 , 250)&quot;&gt;Enter the forum as a registered user, try liking or disliking a post and then refresh the page.&amp;nbsp;&lt;/span&gt;&lt;/li&gt;&lt;ul&gt;&lt;li&gt;Does the number of likes/dislikes change?&lt;/li&gt;&lt;/ul&gt;&lt;li&gt;&lt;span style=&quot;color: rgb(0 , 0 , 0) ; background-color: rgb(248 , 249 , 250)&quot;&gt;Enter the forum as a registered user and try to like and then dislike the same post.&lt;/span&gt;&lt;/li&gt;&lt;ul&gt;&lt;li&gt;Can you confirm that it is not possible that the post is liked and disliked at the same time?&lt;/li&gt;&lt;/ul&gt;&lt;li&gt;&lt;span style=&quot;color: rgb(0 , 0 , 0) ; background-color: rgb(248 , 249 , 250)&quot;&gt;Enter the forum as a registered user and try seeing all of your created posts.&lt;/span&gt;&lt;/li&gt;&lt;ul&gt;&lt;li&gt;Does it present the expected posts?&lt;/li&gt;&lt;/ul&gt;&lt;li&gt;&lt;span style=&quot;color: rgb(0 , 0 , 0) ; background-color: rgb(248 , 249 , 250)&quot;&gt;Enter the forum as a registered user and try seeing all of your liked posts.&amp;nbsp;&lt;/span&gt;&lt;span style=&quot;color: rgb(0 , 0 , 0) ; background-color: rgb(248 , 249 , 250)&quot;&gt;Does it present the expected posts?&lt;/span&gt;&lt;/li&gt;&lt;li&gt;&lt;span style=&quot;color: rgb(0 , 0 , 0) ; background-color: rgb(248 , 249 , 250)&quot;&gt;Navigate to a post of your choice and see its comments.&lt;/span&gt;&lt;/li&gt;&lt;ul&gt;&lt;li&gt;Are all users (registered or not) able to see the number of likes and dislikes that comment has?&lt;/li&gt;&lt;/ul&gt;&lt;li&gt;&lt;span style=&quot;color: rgb(0 , 0 , 0) ; background-color: rgb(248 , 249 , 250)&quot;&gt;Try seeing all posts from one category using the filter.&amp;nbsp;&lt;/span&gt;&lt;span style=&quot;color: rgb(0 , 0 , 0) ; background-color: rgb(248 , 249 , 250)&quot;&gt;Are all posts displayed from that category?&lt;/span&gt;&lt;/li&gt;&lt;li&gt;&lt;span style=&quot;color: rgb(0 , 0 , 0) ; background-color: rgb(248 , 249 , 250)&quot;&gt;Did the server behaved as expected?(did not crashed)&lt;/span&gt;&lt;/li&gt;&lt;li&gt;&lt;span style=&quot;color: rgb(0 , 0 , 0) ; background-color: rgb(248 , 249 , 250)&quot;&gt;Does the server use the right HTTP method?&lt;/span&gt;&lt;/li&gt;&lt;li&gt;&lt;span style=&quot;color: rgb(0 , 0 , 0) ; background-color: rgb(248 , 249 , 250)&quot;&gt;Are all the pages working? (Absence of 404 page?)&lt;/span&gt;&lt;/li&gt;&lt;li&gt;&lt;span style=&quot;color: rgb(0 , 0 , 0) ; background-color: rgb(248 , 249 , 250)&quot;&gt;Does the project handle HTTP status 400 - Bad Requests?&lt;/span&gt;&lt;/li&gt;&lt;li&gt;&lt;span style=&quot;color: rgb(0 , 0 , 0) ; background-color: rgb(248 , 249 , 250)&quot;&gt;Does the project handle HTTP status 500 - Internal Server Errors?&lt;/span&gt;&lt;/li&gt;&lt;/ol&gt;&lt;/font&gt;&lt;/span&gt;" style="strokeWidth=1;shadow=0;dashed=0;align=left;html=1;shape=mxgraph.mockup.forms.rrect;rSize=0;strokeColor=#999999;fillColor=#ffffff;recursiveResize=0;rounded=0;labelBackgroundColor=#ffffff;fontSize=17;fontColor=#4D4D4D;verticalAlign=top;" parent="1" vertex="1">
                    <mxGeometry x="-1080" y="-1690" width="680" height="830" as="geometry"/>
                </mxCell>
                <mxCell id="95" style="edgeStyle=none;html=1;fontSize=13;fontColor=#4D4D4D;" parent="1" source="83" target="77" edge="1">
                    <mxGeometry relative="1" as="geometry"/>
                </mxCell>
                <mxCell id="83" value="&lt;span style=&quot;color: rgb(0 , 0 , 0) ; font-family: &amp;#34;helvetica&amp;#34; ; background-color: rgb(248 , 249 , 250)&quot;&gt;&lt;b&gt;&lt;font style=&quot;font-size: 16px&quot;&gt;DOCKER&lt;/font&gt;&lt;/b&gt;&lt;/span&gt;" style="strokeWidth=1;shadow=0;dashed=0;align=left;html=1;shape=mxgraph.mockup.forms.rrect;rSize=0;strokeColor=#999999;fillColor=#ffffff;recursiveResize=0;rounded=0;labelBackgroundColor=#ffffff;fontSize=13;fontColor=#4D4D4D;verticalAlign=top;" parent="1" vertex="1">
                    <mxGeometry x="-360" y="-1590" width="300" height="210" as="geometry"/>
                </mxCell>
                <mxCell id="108" style="edgeStyle=none;html=1;entryX=-0.006;entryY=0.513;entryDx=0;entryDy=0;entryPerimeter=0;" edge="1" parent="1" source="96" target="42">
                    <mxGeometry relative="1" as="geometry"/>
                </mxCell>
                <mxCell id="96" value="&lt;ol style=&quot;color: rgb(51 , 51 , 51) ; font-family: &amp;#34;ibm plex mono&amp;#34; , monospace ; font-size: 12.8px ; text-align: left&quot;&gt;&lt;li&gt;Back-End&lt;/li&gt;&lt;ul&gt;&lt;li&gt;sql&lt;/li&gt;&lt;li&gt;sys-admin&lt;/li&gt;&lt;/ul&gt;&lt;/ol&gt;" style="strokeWidth=1;shadow=0;dashed=0;align=center;html=1;shape=mxgraph.mockup.forms.rrect;rSize=0;strokeColor=#999999;fillColor=#ffffff;rounded=0;labelBackgroundColor=#ffffff;fontSize=13;fontColor=#4D4D4D;" parent="1" vertex="1">
                    <mxGeometry x="-1060" y="-2410" width="230" height="260" as="geometry"/>
                </mxCell>
                <mxCell id="97" value="&lt;b&gt;Program in Go&lt;/b&gt;" style="strokeWidth=1;shadow=0;dashed=0;align=center;html=1;shape=mxgraph.mockup.forms.rrect;rSize=0;strokeColor=#999999;fontColor=#008cff;fontSize=17;fillColor=#ffffff;resizeWidth=1;rounded=0;labelBackgroundColor=#ffffff;" parent="96" vertex="1">
                    <mxGeometry width="229.99999999999997" height="30" relative="1" as="geometry"/>
                </mxCell>
                <mxCell id="105" value="&lt;div style=&quot;text-align: left&quot;&gt;&lt;font color=&quot;#333333&quot; face=&quot;ibm plex mono, monospace&quot;&gt;&lt;span style=&quot;font-size: 12.8px&quot;&gt;&lt;br&gt;&lt;/span&gt;&lt;/font&gt;&lt;/div&gt;&lt;ol style=&quot;color: rgb(51 , 51 , 51) ; font-family: &amp;#34;ibm plex mono&amp;#34; , monospace ; font-size: 12.8px ; text-align: left&quot;&gt;&lt;li&gt;Front-End&lt;/li&gt;&lt;ul&gt;&lt;li&gt;html&lt;/li&gt;&lt;li&gt;css&lt;/li&gt;&lt;/ul&gt;&lt;li&gt;Docker&lt;/li&gt;&lt;/ol&gt;" style="strokeWidth=1;shadow=0;dashed=0;align=center;html=1;shape=mxgraph.mockup.forms.rrect;rSize=0;strokeColor=#999999;fillColor=#ffffff;rounded=0;labelBackgroundColor=#ffffff;fontSize=13;fontColor=#4D4D4D;" parent="1" vertex="1">
                    <mxGeometry x="-1040" y="-1980" width="230" height="260" as="geometry"/>
                </mxCell>
                <mxCell id="106" value="&lt;b&gt;html, css&lt;/b&gt;" style="strokeWidth=1;shadow=0;dashed=0;align=center;html=1;shape=mxgraph.mockup.forms.rrect;rSize=0;strokeColor=#999999;fontColor=#008cff;fontSize=17;fillColor=#ffffff;resizeWidth=1;rounded=0;labelBackgroundColor=#ffffff;" parent="105" vertex="1">
                    <mxGeometry width="229.99999999999997" height="30" relative="1" as="geometry"/>
                </mxCell>
                <mxCell id="107" value="&lt;span style=&quot;color: rgb(0 , 0 , 0) ; background-color: rgb(248 , 249 , 250)&quot;&gt;&lt;font style=&quot;font-size: 13px&quot;&gt;&lt;b&gt;Functional&lt;/b&gt;&lt;br&gt;&lt;ol&gt;&lt;li&gt;&lt;p class=&quot;p1&quot; style=&quot;margin: 0px 0px 2px ; font-stretch: normal ; font-size: 16px ; line-height: normal ; font-family: &amp;#34;helvetica neue&amp;#34;&quot;&gt;&lt;b style=&quot;font-size: 13px&quot;&gt;Try to login with Github, Is it possible to enter the forum?&lt;/b&gt;&lt;br&gt;&lt;/p&gt;&lt;p class=&quot;p2&quot; style=&quot;margin: 0px ; font-stretch: normal ; line-height: normal ; font-family: &amp;#34;helvetica neue&amp;#34;&quot;&gt;&lt;b&gt;Try to login with Google, Is it possible to enter the forum?&lt;/b&gt;&lt;/p&gt;&lt;p class=&quot;p2&quot; style=&quot;margin: 0px ; font-stretch: normal ; line-height: normal ; font-family: &amp;#34;helvetica neue&amp;#34;&quot;&gt;&lt;b&gt;Try login with Github or Google, creating a post with that user and logout, Is the post created visible?&lt;/b&gt;&lt;/p&gt;&lt;p class=&quot;p2&quot; style=&quot;margin: 0px ; font-stretch: normal ; line-height: normal ; font-family: &amp;#34;helvetica neue&amp;#34;&quot;&gt;&lt;b&gt;Try to login with the user you created, Can you login and have all the rights of a registered user?&lt;/b&gt;&lt;/p&gt;&lt;p class=&quot;p2&quot; style=&quot;margin: 0px ; font-stretch: normal ; line-height: normal ; font-family: &amp;#34;helvetica neue&amp;#34;&quot;&gt;&lt;b&gt;Try creating an account twice with the same credential, Does it present an error?&lt;/b&gt;&lt;/p&gt;&lt;p class=&quot;p2&quot; style=&quot;margin: 0px ; font-stretch: normal ; line-height: normal ; font-family: &amp;#34;helvetica neue&amp;#34;&quot;&gt;&lt;b&gt;Try to enter your account with no email, password or with errors in any of them, Does it present an error and an error message?&lt;/b&gt;&lt;/p&gt;&lt;p class=&quot;p2&quot; style=&quot;margin: 0px ; font-stretch: normal ; line-height: normal ; font-family: &amp;#34;helvetica neue&amp;#34;&quot;&gt;&lt;b&gt;Does the registration ask for an email and a password?&lt;/b&gt;&lt;/p&gt;&lt;p class=&quot;p2&quot; style=&quot;margin: 0px ; font-stretch: normal ; line-height: normal ; font-family: &amp;#34;helvetica neue&amp;#34;&quot;&gt;&lt;b&gt;Does the project present more than two different authentication methods?&lt;/b&gt;&lt;/p&gt;&lt;/li&gt;&lt;/ol&gt;&lt;/font&gt;&lt;/span&gt;" style="strokeWidth=1;shadow=0;dashed=0;align=left;html=1;shape=mxgraph.mockup.forms.rrect;rSize=0;strokeColor=#999999;fillColor=#ffffff;recursiveResize=0;rounded=0;labelBackgroundColor=#ffffff;fontSize=17;fontColor=#4D4D4D;verticalAlign=top;" parent="1" vertex="1">
                    <mxGeometry x="-30" y="-1710" width="840" height="830" as="geometry"/>
                </mxCell>
            </root>
        </mxGraphModel>
    </diagram>
</mxfile>